<svg id="Layer_1" data-name="Layer 1" xmlns="http://www.w3.org/2000/svg" xmlns:xlink="http://www.w3.org/1999/xlink" viewBox="0 0 443.19 478.18"><defs><style>.cls-1{fill:none;clip-rule:evenodd;}.cls-2{clip-path:url(#clip-path);}.cls-3{fill:url(#linear-gradient);}</style><clipPath id="clip-path" transform="translate(-28.76 -10.57)"><path class="cls-1" d="M468.81,212.27A221.8,221.8,0,0,0,287.74,31.2q-6.47-1.1-13-1.82a26.47,26.47,0,0,0-1.8-3.77,25.73,25.73,0,0,0-6.29-7.33,26,26,0,0,0-29.27-2.2,26.32,26.32,0,0,0-3.24,2.2,26.06,26.06,0,0,0-6.91,32.23c.2.38.41.76.62,1.13a26,26,0,0,0,35.56,9.53,26.32,26.32,0,0,0,3.24-2.2,26.06,26.06,0,0,0,6.91-8.46c4.79.55,9.54,1.27,14.22,2.16a200.67,200.67,0,0,1,159.6,159.6,198.44,198.44,0,0,1,2.83,21.13q.65,8,.65,16.26t-.65,16.25H417.54q.76-8,.77-16.25t-.77-16.26A168.21,168.21,0,0,0,320.25,96.89v23.6a147.37,147.37,0,0,1,72.13,91.78,145.84,145.84,0,0,1,3.91,21.13,148.89,148.89,0,0,1,0,32.51A145.84,145.84,0,0,1,392.38,287h76.43q1.77-10.41,2.55-21.13.6-8.06.59-16.25t-.59-16.26q-.76-10.71-2.55-21.13M31.9,287A221.79,221.79,0,0,0,213,468.11q6.47,1.09,13,1.82a26.47,26.47,0,0,0,1.8,3.77,26,26,0,0,0,35.56,9.53,26.32,26.32,0,0,0,3.24-2.2,26.06,26.06,0,0,0,6.91-32.23c-.19-.39-.4-.76-.62-1.13a26,26,0,0,0-35.56-9.53,26.32,26.32,0,0,0-3.24,2.2,26,26,0,0,0-6.91,8.46Q220,448,213,446.63A200.15,200.15,0,0,1,50.54,265.91q-.65-8-.65-16.25t.65-16.26H83.18q-.78,8-.78,16.26t.78,16.25a168.19,168.19,0,0,0,97.28,136.51v-23.6A147.37,147.37,0,0,1,108.33,287a145.84,145.84,0,0,1-3.91-21.13,148.89,148.89,0,0,1,0-32.51,145.84,145.84,0,0,1,3.91-21.13H31.9q-1.77,10.41-2.55,21.13-.59,8.06-.59,16.26t.59,16.25Q30.12,276.62,31.9,287ZM250.36,210.1a39.55,39.55,0,1,1-39.55,39.55A39.55,39.55,0,0,1,250.36,210.1Zm58.57,112L285.74,299a60.68,60.68,0,1,1,0-98.6l23.18-23.18a92.9,92.9,0,0,0-21.18-12.9,91.83,91.83,0,0,0-21.13-6.39,93.91,93.91,0,0,0-32.51,0A91.83,91.83,0,0,0,213,164.27a93.22,93.22,0,0,0,53.64,177.16,92.84,92.84,0,0,0,42.32-19.29Zm-8.43-38.31,23.25,23.25a93.1,93.1,0,0,0,0-114.86L300.5,215.47a60.69,60.69,0,0,1,0,68.36ZM234.1,82.47a167.15,167.15,0,0,0-74.77,26,168.75,168.75,0,0,0-50.15,50.15H71.7A200.82,200.82,0,0,1,180.46,61.71V39.31a218.62,218.62,0,0,0-21.13,8.25A222.39,222.39,0,0,0,48.26,158.63,216.62,216.62,0,0,0,40,179.76H121.2A146.94,146.94,0,0,1,213,107.63v34a114.23,114.23,0,0,0-75.79,91.81,116.46,116.46,0,0,0,0,32.51A114.23,114.23,0,0,0,213,357.72v55.72a168.56,168.56,0,0,0,21.13,3.39v-54a116.46,116.46,0,0,0,32.51,0v54h0l.34,0h0l.33,0h0l.33,0h0l.34,0h0l.33,0h0l.33,0h0l.33,0h0l.33,0h0l.33,0h0l.33,0h0l.33-.05h0l.33,0h0l.33,0h0l.34,0h0l.33-.05h0l.33,0h0l.33,0h0l.33,0h0l.33,0h0l.33,0h0l.33-.05h0L274,416h0l.32,0h0l.33-.05h0l.33-.05h0l.33-.05h0l.33,0h0l.33-.05h0l.33-.05h0l.32-.05h0l.32-.05h0l.33,0h0l.33-.06h0l.33-.06h0l.32-.05h0l.32-.05h0l.32-.06h0l.32-.06h0l.33-.06h0l.33-.06h0l.33-.06h0l.33-.05h0l.32-.06h0l.32-.06h0l.32-.06h0l.33-.06h0l.32-.06h0l.32-.07h0l.33,0h0l.32-.06h0l.32-.07h0l.32-.06h0l.32-.06h0l.33-.07h0l.32-.07h0l.32-.06h0l.31-.08h0l.32-.06h0l.32-.07h0l.33-.07h0l.32-.08h0l.33-.07h0l.32-.07h0l.32-.07h0a167.28,167.28,0,0,0,53.64-22.61,168.9,168.9,0,0,0,50.16-50.15H429A200.86,200.86,0,0,1,320.25,437.6V460a216.62,216.62,0,0,0,21.13-8.25A221.92,221.92,0,0,0,460.71,319.54h-81.2a146.53,146.53,0,0,1-13.94,21.14,148,148,0,0,1-24.19,24.19,146.42,146.42,0,0,1-53.64,26.81h0v-34A114.66,114.66,0,0,0,358.42,287a113.33,113.33,0,0,0,5.11-21.13,115.46,115.46,0,0,0,0-32.51,114.14,114.14,0,0,0-75.79-91.81V85.87a167,167,0,0,0-21.13-3.4v54a115.7,115.7,0,0,0-32.51,0Z"/></clipPath><linearGradient id="linear-gradient" x1="0.84" y1="453.63" x2="455.76" y2="11.52" gradientUnits="userSpaceOnUse"><stop offset="0" stop-color="#6652a3"/><stop offset="1" stop-color="#38c6f4"/></linearGradient></defs><g class="cls-2"><rect class="cls-3" width="443.19" height="478.18"/></g></svg>