<svg id="Layer_1" data-name="Layer 1" xmlns="http://www.w3.org/2000/svg" xmlns:xlink="http://www.w3.org/1999/xlink" viewBox="0 0 576.57 180.22"><defs><style>.cls-1,.cls-2,.cls-4,.cls-5{fill:#fff;}.cls-1{clip-rule:evenodd;}.cls-2,.cls-5{fill-rule:evenodd;}.cls-3{clip-path:url(#clip-path);}.cls-5{stroke:#fff;stroke-miterlimit:10;}</style><clipPath id="clip-path" transform="translate(-10.79 -13.95)"><path class="cls-1" d="M176.63,90a83.59,83.59,0,0,0-68.24-68.24c-1.62-.28-3.26-.51-4.91-.69a10.24,10.24,0,0,0-.68-1.42A9.8,9.8,0,0,0,89.4,16a9,9,0,0,0-1.22.83A9.82,9.82,0,0,0,85.57,29l.23.42a9.66,9.66,0,0,0,2.38,2.76,9.8,9.8,0,0,0,11,.83,9.35,9.35,0,0,0,1.22-.83A9.67,9.67,0,0,0,103,29q2.72.31,5.36.81A75.63,75.63,0,0,1,168.54,90a77.33,77.33,0,0,1,1.07,8c.16,2,.24,4.07.24,6.13s-.08,4.11-.24,6.13h-12.3q.28-3,.29-6.13t-.29-6.13a63.38,63.38,0,0,0-36.67-51.45v8.9a56,56,0,0,1,8,5.26A55.08,55.08,0,0,1,149.3,97.93a55.43,55.43,0,0,1,0,12.26,55,55,0,0,1-1.47,8h28.8q.68-3.93,1-8c.14-2,.22-4.07.22-6.13s-.08-4.1-.22-6.13q-.3-4-1-8M12,118.15a83.6,83.6,0,0,0,68.24,68.24q2.43.42,4.92.69a10.17,10.17,0,0,0,.67,1.42,10,10,0,0,0,2.38,2.76,9.8,9.8,0,0,0,11,.83,10.46,10.46,0,0,0,1.22-.83,9.83,9.83,0,0,0,2.6-12.15c-.07-.14-.15-.28-.23-.42a9.8,9.8,0,0,0-13.4-3.59,8.72,8.72,0,0,0-1.22.83,9.7,9.7,0,0,0-2.61,3.18c-1.81-.2-3.59-.48-5.36-.81a75.63,75.63,0,0,1-60.15-60.15,77.33,77.33,0,0,1-1.07-8c-.16-2-.24-4.07-.24-6.13s.08-4.11.24-6.13h12.3q-.28,3-.29,6.13t.29,6.13a61.71,61.71,0,0,0,1.29,8A63.37,63.37,0,0,0,60,157.27a62.57,62.57,0,0,0,8,4.37v-8.9a55.93,55.93,0,0,1-8-5.26,55.35,55.35,0,0,1-19.23-29.33,55.82,55.82,0,0,1,0-28.18H12q-.68,3.93-1,8-.22,3-.22,6.13t.22,6.13Q11.29,114.23,12,118.15Zm82.33-29a14.91,14.91,0,1,1-14.9,14.91A14.92,14.92,0,0,1,94.3,89.15Zm22.08,42.23-8.74-8.74a22.87,22.87,0,1,1,0-37.16l8.73-8.74a35,35,0,0,0-15.94-7.27,35.49,35.49,0,0,0-12.25,0A35.12,35.12,0,0,0,59.71,97.93a35.71,35.71,0,0,0,0,12.26,35.08,35.08,0,0,0,34.59,29,35.38,35.38,0,0,0,6.13-.53,35.08,35.08,0,0,0,15.95-7.27Zm-3.18-14.44L122,125.7a35,35,0,0,0,6.93-15.51,35.71,35.71,0,0,0,0-12.26A35,35,0,0,0,122,82.42l-8.76,8.76a22.88,22.88,0,0,1,0,25.76Zm-25-75.89A62.83,62.83,0,0,0,68,46.48a62.57,62.57,0,0,0-8,4.37A63.61,63.61,0,0,0,41.09,69.76H27a75.84,75.84,0,0,1,33-33,74.41,74.41,0,0,1,8-3.5V24.78c-2.72.91-5.38,1.95-8,3.11A83.82,83.82,0,0,0,18.14,69.76a80.55,80.55,0,0,0-3.11,8h30.6A55.54,55.54,0,0,1,60,60.64a55.93,55.93,0,0,1,8-5.26,55.27,55.27,0,0,1,12.25-4.85v12.8a43,43,0,0,0-28.56,34.6,43.91,43.91,0,0,0,0,12.26,43,43,0,0,0,28.56,34.6v21a63.34,63.34,0,0,0,8,1.28V146.71a42.85,42.85,0,0,0,12.25,0v20.36h.13l.12,0h.26l.12,0h.26l.12,0h.13l.12,0h.13l.12,0h.13l.13,0h.12l.13,0h0l.12,0h.13l.13,0h0l.12,0h0l.13,0h.12l.13,0h0l.12,0h.13l.12,0h0l.13,0h0l.12,0h0l.13,0h0l.12,0h0l.13,0h0l.12,0h0l.13,0h0l.12,0h0l.12,0h0l.12,0h0l.12,0h0l.13,0h0l.12,0h0l.12,0h0l.13,0h0l.12,0h0l.12,0h0l.12,0h0l.12,0h0l.13,0h0l.12,0h0l.12,0h0l.12,0h0l.12,0h0l.12,0h0l.12,0h0l.12,0h0l.12,0h0l.12,0h0l.12,0h0l.12,0h0l.12,0h0l.12,0h0l.12,0h0l.12,0h0l.12,0h0l.12,0h0l.12,0h0a63.66,63.66,0,0,0,20.22-8.52,63.69,63.69,0,0,0,18.9-18.91h14.12a75.82,75.82,0,0,1-33,33,71.78,71.78,0,0,1-8,3.5v8.45a83.77,83.77,0,0,0,49.83-45,83.11,83.11,0,0,0,3.11-8H143a55.92,55.92,0,0,1-14.37,17.08,55.16,55.16,0,0,1-20.22,10.11h0v-12.8A43,43,0,0,0,137,110.19a42.92,42.92,0,0,0,0-12.26,43,43,0,0,0-28.56-34.6v-21a63.18,63.18,0,0,0-8-1.28V61.41a43.34,43.34,0,0,0-12.25,0Z"/></clipPath></defs><path class="cls-2" d="M176.63,90a83.59,83.59,0,0,0-68.24-68.24c-1.62-.28-3.26-.51-4.91-.69a10.24,10.24,0,0,0-.68-1.42A9.8,9.8,0,0,0,89.4,16a9,9,0,0,0-1.22.83A9.82,9.82,0,0,0,85.57,29l.23.42a9.66,9.66,0,0,0,2.38,2.76,9.8,9.8,0,0,0,11,.83,9.35,9.35,0,0,0,1.22-.83A9.67,9.67,0,0,0,103,29q2.72.31,5.36.81A75.63,75.63,0,0,1,168.54,90a77.33,77.33,0,0,1,1.07,8c.16,2,.24,4.07.24,6.13s-.08,4.11-.24,6.13h-12.3q.28-3,.29-6.13t-.29-6.13a63.38,63.38,0,0,0-36.67-51.45v8.9a56,56,0,0,1,8,5.26A55.08,55.08,0,0,1,149.3,97.93a55.43,55.43,0,0,1,0,12.26,55,55,0,0,1-1.47,8h28.8q.68-3.93,1-8c.14-2,.22-4.07.22-6.13s-.08-4.1-.22-6.13q-.3-4-1-8M12,118.15a83.6,83.6,0,0,0,68.24,68.24q2.43.42,4.92.69a10.17,10.17,0,0,0,.67,1.42,10,10,0,0,0,2.38,2.76,9.8,9.8,0,0,0,11,.83,10.46,10.46,0,0,0,1.22-.83,9.83,9.83,0,0,0,2.6-12.15c-.07-.14-.15-.28-.23-.42a9.8,9.8,0,0,0-13.4-3.59,8.72,8.72,0,0,0-1.22.83,9.7,9.7,0,0,0-2.61,3.18c-1.81-.2-3.59-.48-5.36-.81a75.63,75.63,0,0,1-60.15-60.15,77.33,77.33,0,0,1-1.07-8c-.16-2-.24-4.07-.24-6.13s.08-4.11.24-6.13h12.3q-.28,3-.29,6.13t.29,6.13a61.71,61.71,0,0,0,1.29,8A63.37,63.37,0,0,0,60,157.27a62.57,62.57,0,0,0,8,4.37v-8.9a55.93,55.93,0,0,1-8-5.26,55.35,55.35,0,0,1-19.23-29.33,55.82,55.82,0,0,1,0-28.18H12q-.68,3.93-1,8-.22,3-.22,6.13t.22,6.13Q11.29,114.23,12,118.15Zm82.33-29a14.91,14.91,0,1,1-14.9,14.91A14.92,14.92,0,0,1,94.3,89.15Zm22.08,42.23-8.74-8.74a22.87,22.87,0,1,1,0-37.16l8.73-8.74a35,35,0,0,0-15.94-7.27,35.49,35.49,0,0,0-12.25,0A35.12,35.12,0,0,0,59.71,97.93a35.71,35.71,0,0,0,0,12.26,35.08,35.08,0,0,0,34.59,29,35.38,35.38,0,0,0,6.13-.53,35.08,35.08,0,0,0,15.95-7.27Zm-3.18-14.44L122,125.7a35,35,0,0,0,6.93-15.51,35.71,35.71,0,0,0,0-12.26A35,35,0,0,0,122,82.42l-8.76,8.76a22.88,22.88,0,0,1,0,25.76Zm-25-75.89A62.83,62.83,0,0,0,68,46.48a62.57,62.57,0,0,0-8,4.37A63.61,63.61,0,0,0,41.09,69.76H27a75.84,75.84,0,0,1,33-33,74.41,74.41,0,0,1,8-3.5V24.78c-2.72.91-5.38,1.95-8,3.11A83.82,83.82,0,0,0,18.14,69.76a80.55,80.55,0,0,0-3.11,8h30.6A55.54,55.54,0,0,1,60,60.64a55.93,55.93,0,0,1,8-5.26,55.27,55.27,0,0,1,12.25-4.85v12.8a43,43,0,0,0-28.56,34.6,43.91,43.91,0,0,0,0,12.26,43,43,0,0,0,28.56,34.6v21a63.34,63.34,0,0,0,8,1.28V146.71a42.85,42.85,0,0,0,12.25,0v20.36h.13l.12,0h.26l.12,0h.26l.12,0h.13l.12,0h.13l.12,0h.13l.13,0h.12l.13,0h0l.12,0h.13l.13,0h0l.12,0h0l.13,0h.12l.13,0h0l.12,0h.13l.12,0h0l.13,0h0l.12,0h0l.13,0h0l.12,0h0l.13,0h0l.12,0h0l.13,0h0l.12,0h0l.12,0h0l.12,0h0l.12,0h0l.13,0h0l.12,0h0l.12,0h0l.13,0h0l.12,0h0l.12,0h0l.12,0h0l.12,0h0l.13,0h0l.12,0h0l.12,0h0l.12,0h0l.12,0h0l.12,0h0l.12,0h0l.12,0h0l.12,0h0l.12,0h0l.12,0h0l.12,0h0l.12,0h0l.12,0h0l.12,0h0l.12,0h0l.12,0h0l.12,0h0l.12,0h0a63.66,63.66,0,0,0,20.22-8.52,63.69,63.69,0,0,0,18.9-18.91h14.12a75.82,75.82,0,0,1-33,33,71.78,71.78,0,0,1-8,3.5v8.45a83.77,83.77,0,0,0,49.83-45,83.11,83.11,0,0,0,3.11-8H143a55.92,55.92,0,0,1-14.37,17.08,55.16,55.16,0,0,1-20.22,10.11h0v-12.8A43,43,0,0,0,137,110.19a42.92,42.92,0,0,0,0-12.26,43,43,0,0,0-28.56-34.6v-21a63.18,63.18,0,0,0-8-1.28V61.41a43.34,43.34,0,0,0-12.25,0Z" transform="translate(-10.79 -13.95)"/><g class="cls-3"><rect class="cls-4" width="167.03" height="180.22"/></g><path class="cls-5" d="M438.41,70.27v67.58h-5.89L389.07,83v54.83h-7.14V70.27h5.89l43.54,54.84V70.27Zm-87.22,0h7.14v67.58h-7.14Zm-53.05,61.79a29.17,29.17,0,0,0,14.48-3.62,26.16,26.16,0,0,0,10.14-10,29.85,29.85,0,0,0,0-28.68,26.23,26.23,0,0,0-10.14-10,29.17,29.17,0,0,0-14.48-3.62,29.47,29.47,0,0,0-14.53,3.62,26.53,26.53,0,0,0-10.23,10,29.5,29.5,0,0,0,0,28.68,26.46,26.46,0,0,0,10.23,10A29.47,29.47,0,0,0,298.14,132.06Zm0,6.37a37.05,37.05,0,0,1-18.2-4.49,32.72,32.72,0,0,1-12.74-12.31,35.92,35.92,0,0,1,0-35.14,32.72,32.72,0,0,1,12.74-12.31,39.12,39.12,0,0,1,36.3-.05,32.88,32.88,0,0,1,12.7,12.31,35.84,35.84,0,0,1,0,35.24A32.81,32.81,0,0,1,316.24,134,36.85,36.85,0,0,1,298.14,138.43Zm-69.75,0a36.91,36.91,0,0,1-18.1-4.44,32.54,32.54,0,0,1-12.65-12.31,36.18,36.18,0,0,1,0-35.24,32.47,32.47,0,0,1,12.7-12.31,37.18,37.18,0,0,1,18.15-4.44,37.63,37.63,0,0,1,13.9,2.51,28.88,28.88,0,0,1,10.82,7.34l-4.54,4.54q-7.92-8-20-8a29.35,29.35,0,0,0-14.58,3.67,26.88,26.88,0,0,0-10.28,10,29.31,29.31,0,0,0,0,28.58,26.81,26.81,0,0,0,10.28,10,29.35,29.35,0,0,0,14.58,3.67q12.18,0,20-8.11l4.54,4.54a29.23,29.23,0,0,1-10.86,7.38A37.31,37.31,0,0,1,228.39,138.43ZM549.58,83H528V70.27h58.89V83H565.22v54.83H549.58Zm-47.48,28.6L491.78,85.3l-10.31,26.32Zm4.74,12.08H476.63l-5.76,14.73H455.45l29-68.74h14.87l29.09,68.74H512.6Z" transform="translate(-10.79 -13.95)"/></svg>